<svg width="225" height="1149" viewBox="0 0 225 1149" fill="none" xmlns="http://www.w3.org/2000/svg">
<g clip-path="url(#clip0_14_1967)">
<rect x="225" y="1149" width="225" height="1149" rx="15" transform="rotate(-180 225 1149)" fill="#E86229"/>
<rect x="324.519" y="977.742" width="352" height="62" transform="rotate(-135 324.519 977.742)" fill="white" fill-opacity="0.1"/>
<rect x="-145" y="949.458" width="312" height="62" transform="rotate(-45 -145 949.458)" fill="white" fill-opacity="0.1"/>
<rect x="324.519" y="840.742" width="352" height="62" transform="rotate(-135 324.519 840.742)" fill="white" fill-opacity="0.2"/>
<rect x="-145" y="812.458" width="312" height="62" transform="rotate(-45 -145 812.458)" fill="white" fill-opacity="0.2"/>
<rect x="324.519" y="703.742" width="352" height="62" transform="rotate(-135 324.519 703.742)" fill="white" fill-opacity="0.4"/>
<rect x="-145" y="675.458" width="312" height="62" transform="rotate(-45 -145 675.458)" fill="white" fill-opacity="0.4"/>
<rect x="324.519" y="566.742" width="352" height="62" transform="rotate(-135 324.519 566.742)" fill="white" fill-opacity="0.6"/>
<rect x="-145" y="538.458" width="312" height="62" transform="rotate(-45 -145 538.458)" fill="white" fill-opacity="0.6"/>
<rect x="324.519" y="1397.74" width="352" height="62" transform="rotate(-135 324.519 1397.74)" fill="white" fill-opacity="0.6"/>
<rect x="-145" y="1369.46" width="312" height="62" transform="rotate(-45 -145 1369.46)" fill="white" fill-opacity="0.6"/>
<rect x="324.519" y="429.742" width="352" height="62" transform="rotate(-135 324.519 429.742)" fill="white" fill-opacity="0.8"/>
<rect x="-145" y="401.458" width="312" height="62" transform="rotate(-45 -145 401.458)" fill="white" fill-opacity="0.8"/>
<rect x="324.519" y="1260.74" width="352" height="62" transform="rotate(-135 324.519 1260.74)" fill="white" fill-opacity="0.05"/>
<rect x="-145" y="1232.46" width="312" height="62" transform="rotate(-45 -145 1232.46)" fill="white" fill-opacity="0.05"/>
<rect x="324.519" y="292.742" width="352" height="62" transform="rotate(-135 324.519 292.742)" fill="white"/>
<rect x="-145" y="264.458" width="312" height="62" transform="rotate(-45 -145 264.458)" fill="white"/>
<rect x="324.519" y="1123.74" width="352" height="62" transform="rotate(-135 324.519 1123.74)" fill="white" fill-opacity="0.1"/>
<rect x="-145" y="1095.46" width="312" height="62" transform="rotate(-45 -145 1095.46)" fill="white" fill-opacity="0.1"/>
</g>
<defs>
<clipPath id="clip0_14_1967">
<rect x="225" y="1149" width="225" height="1149" rx="15" transform="rotate(-180 225 1149)" fill="white"/>
</clipPath>
</defs>
</svg>
