<svg width="295" height="79" viewBox="0 0 295 79" fill="none" xmlns="http://www.w3.org/2000/svg">
<path d="M116.103 64.8533C115.973 64.3074 116.319 63.7632 116.865 63.6326C120.28 62.8147 122.625 61.7614 123.898 60.4726C125.292 59.0619 126.148 56.4442 126.464 52.6196L128.524 28.7521C128.569 28.2351 129.001 27.8381 129.52 27.8381H170.896C171.449 27.8381 171.896 28.2858 171.896 28.8381V76.6363C171.896 77.1886 171.449 77.6363 170.896 77.6363H155.263V43.6036C155.263 43.0513 154.816 42.6036 154.263 42.6036H144.78C144.259 42.6036 143.826 43.0038 143.784 43.5233L142.812 55.5821C142.21 62.6984 140.135 67.9808 136.587 71.4292C133.176 74.7439 127.731 77.0448 120.251 78.3319C119.736 78.4206 119.243 78.09 119.122 77.5815L116.103 64.8533Z" fill="white"/>
<path d="M197.939 78.2946C192.743 78.2946 188.593 76.8839 185.488 74.0625C182.383 71.2097 180.831 67.4635 180.831 62.8238C180.831 57.5885 182.795 53.4817 186.723 50.5036C190.684 47.5254 196.149 46.0363 203.119 46.0363C206.604 46.0363 210.358 46.5222 214.382 47.494V46.3185C214.382 43.8419 213.526 42.0236 211.816 40.8637C210.136 39.7038 207.459 39.1238 203.784 39.1238C201.218 39.1238 198.731 39.4216 196.323 40.0173C194.201 40.5493 191.787 41.3691 189.083 42.4765C188.55 42.6949 187.939 42.4268 187.747 41.8835L184.416 32.4647C184.243 31.9755 184.472 31.4344 184.947 31.2258C188.496 29.6674 191.812 28.5538 194.897 27.8851C198.256 27.1641 202.026 26.8036 206.208 26.8036C213.685 26.8036 219.467 28.5435 223.554 32.0232C227.641 35.4716 229.684 40.3778 229.684 46.7417V76.6363C229.684 77.1886 229.237 77.6363 228.684 77.6363H216.327C215.796 77.6363 215.357 77.2213 215.328 76.6911L215.168 73.7677C215.121 72.9103 214.068 72.4892 213.395 73.0223C211.624 74.4245 209.593 75.5863 207.301 76.5077C204.291 77.699 201.17 78.2946 197.939 78.2946ZM196.751 61.9304C196.751 63.5605 197.321 64.8458 198.462 65.7863C199.634 66.6954 201.25 67.15 203.309 67.15C206.382 67.15 208.98 66.2566 211.103 64.4696C213.003 62.8419 214.154 60.8875 214.557 58.6065C214.64 58.1362 214.337 57.6922 213.878 57.5632C210.734 56.6814 207.861 56.2405 205.257 56.2405C199.586 56.2405 196.751 58.1371 196.751 61.9304Z" fill="white"/>
<path d="M267.227 79C258.103 79 251.054 76.1159 246.08 70.3476C241.106 64.548 238.619 56.1935 238.619 45.2839C238.619 40.0486 238.999 35.456 239.759 31.506C240.52 27.5246 241.676 24.0292 243.228 21.0196C244.781 17.9788 246.824 15.4081 249.359 13.3077C251.925 11.2073 254.903 9.48313 258.293 8.13512C261.715 6.75575 265.754 5.65853 270.412 4.84345C275.481 3.93433 279.267 3.1506 281.77 2.49226C283.917 1.90785 285.906 1.22216 287.735 0.435165C288.265 0.206973 288.885 0.45532 289.095 0.993387L293.563 12.4738C293.748 12.9486 293.547 13.4874 293.091 13.7155C290.586 14.9701 288.016 15.994 285.381 16.7875C282.498 17.6653 278.49 18.5274 273.358 19.3738C266.768 20.471 262.079 22.1952 259.291 24.5464C257.151 26.3274 255.645 28.8659 254.775 32.1619C254.523 33.1149 255.737 33.7218 256.496 33.0927C260.418 29.8404 265.389 28.2143 271.409 28.2143C278.38 28.2143 284.035 30.5498 288.375 35.2208C292.747 39.8605 294.933 45.8482 294.933 53.1839C294.933 60.8018 292.351 67.0089 287.187 71.8054C282.023 76.6018 275.37 79 267.227 79ZM255.062 52.9958C255.062 56.5069 256.155 59.3597 258.341 61.5542C260.558 63.7486 263.394 64.8458 266.847 64.8458C270.301 64.8458 273.12 63.7486 275.306 61.5542C277.492 59.3597 278.585 56.5069 278.585 52.9958C278.585 49.422 277.492 46.5379 275.306 44.3435C273.152 42.149 270.332 41.0518 266.847 41.0518C263.331 41.0518 260.479 42.149 258.293 44.3435C256.139 46.5379 255.062 49.422 255.062 52.9958Z" fill="white"/>
<path d="M31.822 78.9997C31.4571 78.9997 31.1212 78.801 30.9455 78.4812L20.6123 59.6749C20.4367 59.3551 20.1008 59.1564 19.7359 59.1564H17.262C16.7097 59.1564 16.262 59.6041 16.262 60.1564V77.9997C16.262 78.552 15.8143 78.9997 15.262 78.9997H1C0.447715 78.9997 0 78.552 0 77.9997V27.333C0 26.7807 0.447715 26.333 1 26.333H15.262C15.8143 26.333 16.262 26.7807 16.262 27.333V43.5848C16.262 44.1371 16.7097 44.5848 17.262 44.5848H20.0104C20.3767 44.5848 20.7137 44.3846 20.8888 44.0628L30.2534 26.855C30.4284 26.5333 30.7654 26.333 31.1317 26.333H47.369C48.1407 26.333 48.6216 27.1699 48.233 27.8366L34.6173 51.1963C34.437 51.5057 34.4359 51.888 34.6145 52.1985L49.1711 77.501C49.5547 78.1677 49.0735 78.9997 48.3044 78.9997H31.822Z" fill="white"/>
<circle cx="82.9501" cy="51.3502" r="27.65" fill="white"/>
</svg>
