<svg width="268" height="285" viewBox="0 0 268 285" fill="none" xmlns="http://www.w3.org/2000/svg">
<circle cx="120.848" cy="145.839" r="58.9433" fill="black"/>
<path d="M128.434 123.566C125.854 107.892 130.664 93.682 136.287 79.1625C142.57 62.939 148.35 45.8294 158.917 31.7899C166.022 22.3509 174.804 11.0207 186.512 7.14904C197.559 3.49606 208.025 7.47338 216.547 14.608C223.559 20.4777 230.203 30.63 228.75 40.3223C227.575 48.1597 221.718 55.2315 216.545 60.8092C204.823 73.4486 191.501 84.7417 178.952 96.5416C162.759 111.769 145.116 125.952 129.991 142.257C125.675 146.911 123.279 152.054 119.812 157.201" stroke="black" stroke-width="3.46725" stroke-linecap="round"/>
<path d="M125.135 134.269C125.289 123.521 128.992 114.951 137.202 107.653C144.281 101.361 152.727 96.5667 160.681 91.4921C167.78 86.963 174.873 82.2853 182.505 78.6852C196.78 71.9517 214.686 68.3353 230.466 68.4048C241.385 68.4529 259.531 71.2356 264.531 82.9542C268.376 91.9667 264.125 99.2736 258.127 106.129C249.429 116.069 238.117 122.734 226.807 129.303C212.595 137.557 198.116 144.574 182.854 150.648C172.932 154.597 163.054 157.848 152.753 160.623C142.245 163.455 132.599 167.499 122.435 171.209C114.824 173.987 107.456 176.452 100.044 179.747" stroke="black" stroke-width="3.46725" stroke-linecap="round"/>
<path d="M115.069 130.6C115.069 131.166 114.806 131.803 114.131 132.487C113.45 133.176 112.409 133.85 111.03 134.441C108.278 135.621 104.394 136.379 100.044 136.379C95.6941 136.379 91.8108 135.621 89.0581 134.441C87.6797 133.85 86.638 133.176 85.9578 132.487C85.2824 131.803 85.0194 131.166 85.0194 130.6C85.0194 130.033 85.2824 129.397 85.9578 128.712C86.638 128.023 87.6797 127.349 89.0581 126.759C91.8108 125.579 95.6941 124.821 100.044 124.821C104.394 124.821 108.278 125.579 111.03 126.759C112.409 127.349 113.45 128.023 114.131 128.712C114.806 129.397 115.069 130.033 115.069 130.6Z" fill="white" stroke="black" stroke-width="2.3115"/>
<path d="M150.897 129.444C150.897 130.011 150.634 130.647 149.959 131.331C149.279 132.021 148.237 132.694 146.858 133.285C144.106 134.465 140.222 135.223 135.872 135.223C131.522 135.223 127.639 134.465 124.886 133.285C123.508 132.694 122.466 132.021 121.786 131.331C121.111 130.647 120.848 130.011 120.848 129.444C120.848 128.877 121.111 128.241 121.786 127.557C122.466 126.867 123.508 126.194 124.886 125.603C127.639 124.423 131.522 123.665 135.872 123.665C140.222 123.665 144.106 124.423 146.858 125.603C148.237 126.194 149.279 126.867 149.959 127.557C150.634 128.241 150.897 128.877 150.897 129.444Z" fill="white" stroke="black" stroke-width="2.3115"/>
<ellipse cx="100.044" cy="120.776" rx="8.09025" ry="10.9796" fill="black"/>
<ellipse cx="135.872" cy="119.62" rx="8.09025" ry="10.9796" fill="black"/>
<path d="M72.9487 166.103C60.4094 166.103 47.8766 166.158 35.3544 165.49C30.9461 165.255 28.0835 161.908 26.7142 157.8C25.788 155.021 26.2923 152.207 24.9678 149.558" stroke="black" stroke-width="2.3115" stroke-linecap="round"/>
<path d="M13.8683 146.633C14.1 146.807 14.0609 148.122 14.0609 148.463C14.0609 148.907 13.9833 147.651 13.9699 147.457C13.9621 147.344 13.8784 146.792 14.0502 146.751C14.851 146.56 15.7197 146.636 16.506 146.344C16.9636 146.175 17.3953 146.152 17.881 146.152C20.1138 146.152 22.3466 146.152 24.5795 146.152C26.0012 146.152 27.38 146.059 28.7955 145.964C30.1203 145.876 31.542 146.016 32.8402 145.724C33.5007 145.575 34.0829 145.478 34.7556 145.478C35.1636 145.478 35.0552 145.737 35.0552 146.109C35.0552 146.655 35.0552 147.2 35.0552 147.746C35.0552 148.157 34.9664 148.105 34.5577 148.083C33.9329 148.05 33.295 148.065 32.669 148.078C31.7609 148.096 30.8946 148.491 29.9939 148.602C28.8297 148.746 27.6549 148.808 26.4948 148.987C24.248 149.335 21.8865 149.137 19.6144 149.137C18.8312 149.137 18.1185 149.387 17.3459 149.421C16.8302 149.443 16.3105 149.426 15.7944 149.426C15.2587 149.426 14.3149 149.675 14.1786 149.009C14.1066 148.657 14.1572 148.253 14.1572 147.896C14.1572 147.389 14.479 147.454 14.9597 147.521C15.5191 147.6 15.9961 147.789 16.5755 147.789C17.938 147.789 19.3006 147.789 20.6631 147.789C21.7808 147.789 22.4967 147.72 23.4666 148.27C24.3989 148.799 25.4764 148.909 26.5055 149.159C28.069 149.538 30.1568 149.5 31.6846 148.945" stroke="black" stroke-width="2.3115" stroke-linecap="round"/>
<path d="M11.1558 146.078C10.4511 146.044 10.0427 145.819 9.49949 145.395C8.40045 144.537 7.23263 143.669 6.47018 142.475C5.30129 140.643 6.45413 138.092 7.00049 136.271C7.48075 134.67 8.44839 132.565 6.9569 131.12C5.82614 130.025 4.83838 128.253 5.53306 126.725" stroke="black" stroke-width="2.3115" stroke-linecap="round"/>
<path d="M8.27896 148.824C7.24178 148.336 6.15899 148.041 5.13343 147.494C3.7086 146.734 3.20885 145.654 2.64896 144.254C1.92483 142.444 2.00242 140.693 2.00242 138.755" stroke="black" stroke-width="2.3115" stroke-linecap="round"/>
<path d="M84.3573 176.49C80.0561 176.49 75.9303 183.307 74.7744 186.774C73.4455 190.761 74.14 195.646 74.14 199.796C74.14 204.805 74.14 209.813 74.14 214.822C74.14 220.447 74.5312 226.194 73.539 231.751C72.2387 239.032 69.9764 245.574 67.295 252.452C63.8657 261.249 60.8436 273.634 63.9227 282.871" stroke="black" stroke-width="2.3115" stroke-linecap="round"/>
<path d="M104.191 197.526C103.001 200.773 100.765 203.717 100.051 207.109C99.1297 211.484 98.8164 215.9 98.7821 220.365C98.731 227.002 101.137 233.274 101.654 239.931C102.103 245.719 102.385 252.314 101.654 258.095C101.12 262.31 99.4917 266.592 98.7821 270.85" stroke="black" stroke-width="2.3115" stroke-linecap="round"/>
<path d="M148.666 175.889C153.523 184.038 159.238 193.618 158.883 203.536C158.69 208.941 157.663 214.865 156.079 220.031C154.779 224.269 152.195 227.943 150.803 232.118C149.151 237.074 148.132 244.04 148.132 249.28C148.132 255.497 152.105 258.879 155.277 263.638" stroke="black" stroke-width="2.3115" stroke-linecap="round"/>
<path d="M159.485 177.091C173.701 186.085 174.727 202.035 171.872 217.259C170.224 226.05 170.904 235.483 170.904 244.405" stroke="black" stroke-width="2.3115" stroke-linecap="round"/>
<path d="M168.5 156.657C169.788 153.22 177.529 158.499 179.318 159.728C183.278 162.451 185.802 168.038 188.467 171.949C193.73 179.674 194.021 188.605 197.349 196.925" stroke="black" stroke-width="2.3115" stroke-linecap="round"/>
<path d="M108.244 159.732C106.953 159.41 110.285 153.497 110.714 152.971C112.733 150.493 116.367 149.619 119.388 149.266C120.695 149.114 122.173 148.957 123.326 149.712C124.956 150.779 126.374 152.517 127.476 154.095C128.092 154.976 128.709 155.938 129.196 156.898C129.536 157.568 129.75 158.282 130.289 158.821" stroke="#E86229" stroke-width="2.3115" stroke-linecap="round"/>
<path d="M105.147 160.461C106.906 160.461 108.841 161.003 110.431 161.737" stroke="#E86229" stroke-width="2.3115" stroke-linecap="round"/>
<path d="M127.01 161.372C129.559 160.477 132.654 159.368 135.391 159.368" stroke="#E86229" stroke-width="2.3115" stroke-linecap="round"/>
<path d="M71.53 103.67C72.6084 104.388 73.4464 106.173 74.0223 107.308C74.4412 108.133 74.9382 108.889 75.4546 109.657C75.7355 110.074 76.1302 110.928 76.6219 111.146C76.8437 111.245 76.9306 111.343 77.0731 111.533" stroke="#E86229" stroke-width="2.3115" stroke-linecap="round"/>
<path d="M71.1433 101.994C70.9549 101.994 71.5179 101.948 71.7019 101.908C73.0121 101.619 74.1471 100.763 75.2898 100.103C80.9702 96.8228 86.5122 93.3053 92.1553 89.9622C94.4761 88.5874 96.7326 87.1152 98.9875 85.6367C101.679 83.872 104.712 83.2327 107.803 82.4712C111.963 81.4467 115.985 80.6186 120.286 80.509C123.413 80.4293 126.742 80.3573 129.818 81.0103C132.433 81.5655 134.997 82.4066 137.553 83.1802C140.266 84.0017 142.561 84.9996 144.915 86.5748C146.594 87.6986 148.351 88.8366 149.792 90.263C150.956 91.4164 151.812 92.8 152.742 94.1374C153.863 95.7493 154.801 97.4357 155.764 99.1362C156.165 99.8438 156.683 100.552 156.237 101.421C155.915 102.049 155.144 102.493 154.576 102.867C154.263 103.074 153.793 103.555 153.415 103.641C153.059 103.721 152.396 103.186 152.098 103.025C151.42 102.658 150.92 102.074 150.293 101.636C149.448 101.045 148.507 100.746 147.543 100.418C146.057 99.9124 144.601 99.3429 143.088 98.9142C139.551 97.9116 135.958 97.0421 132.375 96.2215C129.755 95.6215 127.019 94.8569 124.325 94.7032C120.684 94.4954 117 94.6366 113.354 94.6459C111.04 94.6518 108.814 94.7043 106.564 95.2905C104.667 95.7847 102.768 96.2892 100.878 96.8087C98.7205 97.4017 97.0868 98.5237 95.2491 99.7593C89.5442 103.595 84.1124 108.066 78.1043 111.404" stroke="#E86229" stroke-width="2.3115" stroke-linecap="round"/>
<path d="M79.5222 98.771C79.8981 100.301 81.0484 101.506 81.907 102.789C82.7796 104.092 83.5506 105.458 84.4207 106.763" stroke="#E86229" stroke-width="2.3115" stroke-linecap="round"/>
<path d="M88.4174 91.9389C89.7811 94.344 90.9302 97.0295 92.5424 99.2866" stroke="#E86229" stroke-width="2.3115" stroke-linecap="round"/>
<path d="M98.0853 87.1693C99.15 88.9854 99.4404 91.404 99.9903 93.4285C100.239 94.3453 100.434 95.2732 100.663 96.1929" stroke="#E86229" stroke-width="2.3115" stroke-linecap="round"/>
<path d="M108.656 82.3996C109.044 84.7112 109.043 86.9833 109.043 89.3177C109.043 90.1627 108.785 90.9746 108.785 91.8099C108.785 92.4115 108.785 93.0131 108.785 93.6146" stroke="#E86229" stroke-width="2.3115" stroke-linecap="round"/>
<path d="M120 80.8527C120.553 81.8907 120.252 83.7591 120.257 84.8775C120.263 86.0383 120.296 87.2122 120.229 88.3724C120.12 90.2652 119.696 92.1432 119.355 94.0014" stroke="#E86229" stroke-width="2.3115" stroke-linecap="round"/>
<path d="M131.086 81.884C131.124 83.6669 131.37 85.5057 131.157 87.2839C130.971 88.8422 130.297 90.3846 129.711 91.8243C129.304 92.8232 129.157 93.9246 128.765 94.9038" stroke="#E86229" stroke-width="2.3115" stroke-linecap="round"/>
<path d="M140.11 84.5911C140.11 87.6976 139.961 90.4114 138.477 93.2136C138.086 93.9516 137.819 94.7771 137.445 95.491C137.222 95.9179 137.016 96.0695 137.016 96.5795" stroke="#E86229" stroke-width="2.3115" stroke-linecap="round"/>
<path d="M148.101 89.8763C148.158 91.9187 148.74 93.8145 147.679 95.713C147.08 96.784 146.207 97.7119 145.91 98.8999" stroke="#E86229" stroke-width="2.3115" stroke-linecap="round"/>
<path d="M70.2332 101.736C69.4017 98.4099 69.2452 94.5987 69.7972 91.2254C70.7225 85.5707 74.1587 80.5381 77.3931 75.9418C80.2484 71.8843 83.2281 67.9197 86.0906 63.8709C87.3555 62.0818 89.1464 60.9305 90.9097 59.6828C93.1867 58.0718 95.3665 56.1862 97.8172 54.8407C102.75 52.1324 109.054 50.6866 114.558 49.7462C123.997 48.1335 133.868 48.5852 143.393 48.6561C151.451 48.7162 159.2 49.6044 166.135 53.9802C168.068 55.2003 170.097 56.554 171.47 58.4207C172.236 59.4616 172.813 60.6487 173.49 61.7482C174.445 63.3015 175.271 64.8762 175.658 66.6821C176.041 68.4669 177.059 70.7409 176.794 72.5913C176.709 73.1894 175.659 71.4915 175.543 71.3865C174.912 70.8124 174.086 70.7614 173.272 70.7554C171.321 70.7411 169.216 70.7521 167.466 71.7193C166.024 72.5159 164.454 73.438 163.163 74.4616C162.177 75.2429 161.647 76.4462 161.017 77.5023C160.039 79.1428 158.824 80.6986 158.114 82.4821C156.951 85.4041 156.438 88.5466 155.303 91.4779C154.742 92.9261 153.894 94.2433 153.72 95.8151C153.624 96.6772 153.674 97.5652 153.674 98.4312C153.674 99.9542 153.467 101.459 153.467 102.975" stroke="#E86229" stroke-width="2.3115" stroke-linecap="round"/>
<path d="M176.719 73.1182C178.124 75.5768 179.194 78.1926 180.3 80.7954C180.659 81.6401 181.022 82.4831 181.374 83.3306C181.43 83.4645 181.646 83.7719 181.503 83.746C181.263 83.7023 181.12 82.6201 181.088 82.4999C180.794 81.3947 180.384 80.3209 180.128 79.2056C179.887 78.1564 179.798 77.0722 179.842 75.9972C179.861 75.5264 180.044 75.4299 179.827 75.7394C178.895 77.0717 177.128 77.9201 175.717 78.5754C174.318 79.2251 172.825 79.7521 171.362 80.2368C170.803 80.4224 170.236 80.5854 169.672 80.7596C169.246 80.8915 168.055 81.4065 168.376 81.0962C169.006 80.4875 169.873 80.1831 170.653 79.7857C172.484 78.8535 173.508 78.3915 175.466 77.6873C177.589 76.9237 179.787 76.368 181.983 75.8611C182.386 75.7681 183.199 75.7337 183.551 75.4314C183.884 75.1459 184.084 74.7381 184.375 74.4145C184.885 73.8474 186.324 74.0064 187.089 73.8917C187.837 73.7795 188.605 73.7003 189.338 73.505C189.807 73.38 188.497 73.9906 188.063 74.2068C185.365 75.5501 182.363 76.0001 179.641 77.2433C178.681 77.6819 177.847 78.3864 176.977 78.9764C176.68 79.1779 176.4 79.4251 176.146 79.6782C175.862 79.9622 175.387 80.7309 175.466 79.8358C175.665 77.5853 176.587 75.2632 177.221 73.1039C177.48 72.2212 177.564 70.8979 178.023 70.0961C178.213 69.7629 178.333 70.8157 178.352 71.1989C178.447 73.0874 177.933 74.9893 177.464 76.7993C177.024 78.4967 176.373 80.1567 176.003 81.8697C175.864 82.5138 175.881 82.5733 176.175 81.9699C177.35 79.5539 179.128 77.3843 180.014 74.837C180.362 73.8334 180.625 72.7132 180.529 71.643C180.489 71.1886 180.338 70.8466 180.329 71.5857C180.292 74.5534 180.019 77.2656 179.297 80.1509C179.138 80.7867 178.791 82.711 178.81 82.0559C178.833 81.2993 179.019 80.5564 179.126 79.8071C179.515 77.0802 179.839 74.3318 180.336 71.6215C180.573 70.3253 181.407 69.5292 182.241 68.5706C183.216 67.4492 182.165 70.1387 182.148 70.182C181.302 72.2853 180.121 74.1825 178.889 76.076C178.801 76.2121 177.249 78.9943 176.934 78.9549C176.694 78.9249 177.09 78.4942 177.206 78.2817C177.589 77.5793 177.862 77.1697 178.431 76.5486C180.029 74.8052 182.168 73.7473 183.838 72.1013C184.074 71.8682 184.224 71.6516 184.425 71.3995C184.492 71.315 184.575 71.0973 184.654 71.1703C184.793 71.2971 184.589 71.5437 184.511 71.7146C184.197 72.4054 183.706 73.2384 183.294 73.8344C181.866 75.8963 180.145 77.7501 178.166 79.2915C177.82 79.5606 177.001 80.3628 176.777 79.535C176.123 77.125 177.174 74.4112 177.564 72.044C177.711 71.1523 177.893 70.1883 178.61 69.5518C178.934 69.2642 181.654 68.0432 181.689 68.7998C181.724 69.544 180.949 71.7006 180.823 72.087C180.647 72.6263 179.959 74.6774 179.677 75.4243C179.335 76.3302 178.32 75.7068 177.536 75.5675C175.883 75.2741 174.238 75.1959 172.566 75.1163C170.548 75.0203 173.396 75.0595 173.64 75.0519C174.422 75.0272 177.784 75.0658 175.803 73.6482C175.048 73.108 174.206 72.7538 173.497 72.1443C173.234 71.9187 172.914 71.8362 172.651 71.6215C171.989 71.0795 171.033 70.9657 170.217 70.669C170.119 70.6336 170.407 70.752 170.496 70.805C171.416 71.3534 172.239 72.0461 173.081 72.7029C173.129 72.7402 175.829 74.6741 175.573 74.8657C175.255 75.1041 174.058 74.9775 173.726 75.0089C172.063 75.1657 170.41 75.3443 168.741 75.4386C168.175 75.4706 166.601 75.2732 166.063 75.5961C165.342 76.0285 167.747 75.6627 168.584 75.5818C170.334 75.4126 172.078 74.938 173.84 74.923C175.203 74.9113 176.567 74.923 177.93 74.923C178.657 74.923 177.981 76.4893 177.872 76.7133C176.7 79.1353 174.903 81.3337 173.425 83.5741C173.076 84.103 172.623 84.76 172.623 85.429C172.623 85.8978 173.423 84.9226 173.747 84.5839C175.308 82.9533 176.882 81.0737 177.693 78.9334C178.006 78.1087 177.98 78.294 178.037 79.1626C178.128 80.5486 178.137 81.928 178.137 83.3163C178.137 84.7857 178.71 82.2128 178.782 81.9556C179.3 80.0915 179.433 78.1835 179.827 76.3123C179.898 75.9764 180.447 76.6505 180.658 76.921C181.497 77.9946 182.283 79.1302 183.036 80.2655C183.459 80.9029 183.785 81.5882 184.189 82.2349C184.318 82.4424 184.621 82.7147 184.69 82.9582C184.999 84.0404 183.497 81.0463 182.986 80.0435C182.735 79.5515 182.291 78.8498 182.262 78.2746C182.223 77.4872 183.873 78.12 184.225 78.203C185.883 78.5945 187.534 79.0454 189.166 79.535C189.454 79.6215 190.917 80.0978 189.997 79.5207C188.979 78.8824 187.945 78.2716 186.903 77.673C186.235 77.2893 185.602 76.74 184.905 76.4197C184.443 76.2075 184.068 75.911 183.659 76.3338C182.39 77.6447 182.292 80.1314 181.997 81.8267C181.738 83.3195 181.489 84.7232 181.489 86.2382C181.489 86.4007 181.523 86.8274 181.403 86.7181C180.714 86.092 180.433 84.2773 180.271 83.4452C180.02 82.1526 180.077 80.843 180.071 79.535C180.069 79.0621 179.849 77.6793 180.028 78.117C180.701 79.7615 180.242 82.0018 179.548 83.5526C178.988 84.8052 177.987 85.8043 177.493 87.0403" stroke="#E86229" stroke-width="2.3115" stroke-linecap="round"/>
</svg>
