<svg width="285" height="252" viewBox="0 0 285 252" fill="none" xmlns="http://www.w3.org/2000/svg">
<circle cx="145.792" cy="138.13" r="55.8274" fill="black"/>
<path d="M152.977 117.034C150.533 102.189 155.089 88.7298 160.415 74.9778C166.366 59.6119 171.841 43.4068 181.849 30.1094C188.578 21.1694 196.896 10.4382 207.985 6.77115C218.448 3.31127 228.36 7.07834 236.433 13.8358C243.074 19.3952 249.367 29.0109 247.99 38.1909C246.877 45.6139 241.33 52.3119 236.43 57.5947C225.328 69.566 212.71 80.2621 200.825 91.4383C185.488 105.86 168.777 119.294 154.452 134.737C150.364 139.145 148.095 144.017 144.811 148.891" stroke="black" stroke-width="3.28397" stroke-linecap="round"/>
<path d="M149.853 127.171C149.998 116.992 153.505 108.874 161.281 101.963C167.986 96.0027 175.986 91.462 183.519 86.6557C190.243 82.366 196.961 77.9355 204.19 74.5258C217.71 68.1482 234.67 64.723 249.615 64.7888C259.957 64.8344 277.144 67.4699 281.879 78.5691C285.521 87.1052 281.495 94.0258 275.814 100.518C267.576 109.934 256.862 116.246 246.15 122.468C232.689 130.286 218.975 136.931 204.52 142.684C195.123 146.425 185.767 149.504 176.01 152.133C166.058 154.814 156.922 158.645 147.295 162.158C140.086 164.789 133.108 167.125 126.088 170.245" stroke="black" stroke-width="3.28397" stroke-linecap="round"/>
<path d="M135.94 120.068C135.94 128.266 129.533 134.846 121.709 134.846C113.886 134.846 107.479 128.266 107.479 120.068C107.479 111.87 113.886 105.29 121.709 105.29C129.533 105.29 135.94 111.87 135.94 120.068Z" fill="white" stroke="black" stroke-width="2.18931"/>
<path d="M175.347 120.068C175.347 128.266 168.94 134.846 161.117 134.846C153.294 134.846 146.886 128.266 146.886 120.068C146.886 111.87 153.294 105.29 161.117 105.29C168.94 105.29 175.347 111.87 175.347 120.068Z" fill="white" stroke="black" stroke-width="2.18931"/>
<ellipse cx="118.425" cy="117.331" rx="7.66259" ry="8.75725" fill="black"/>
<ellipse cx="157.833" cy="117.331" rx="7.66259" ry="8.75725" fill="black"/>
<path d="M132.045 146.151C132.084 145.718 132.492 145.522 132.74 145.207C132.994 144.883 133.154 144.51 133.526 144.315C134.675 143.714 134.944 142.414 135.886 141.602C136.568 141.014 137.398 140.487 138.299 140.487C139.512 140.487 140.203 141.385 140.803 142.349C141.29 143.132 141.463 143.306 142.088 142.427C142.927 141.248 144.062 140.492 145.444 140.081C146.181 139.862 147.672 139.602 148.217 140.317C148.841 141.136 149.036 141.886 149.036 142.919C149.036 143.169 149.099 143.524 149.01 143.765C148.872 144.137 148.489 144.433 148.328 144.827C148.211 145.113 148.046 145.192 147.909 145.443C147.744 145.744 147.722 146.117 147.62 146.439C147.406 147.119 147.228 147.763 147.089 148.458C146.993 148.937 146.887 149.41 146.788 149.887C146.64 150.6 146.017 151.201 145.555 151.743C144.715 152.729 142.851 152.956 141.655 153.086C140.352 153.228 138.886 153.056 137.761 152.365C136.842 151.801 136.025 151.069 135.165 150.425C134.567 149.976 134.253 149.213 133.815 148.629" stroke="white" stroke-width="2.18931" stroke-linecap="round"/>
<path d="M133.343 147.449C135.34 147.449 137.338 147.449 139.335 147.449C140.376 147.449 141.666 147.675 142.652 147.272C143.696 146.844 144.727 146.741 145.851 146.741" stroke="white" stroke-width="2.18931" stroke-linecap="round"/>
<path d="M133.673 88.1775C128.305 90.6742 122.823 92.9573 116.78 92.0801C113.04 91.5372 109.592 88.334 107.639 85.2407C106.758 83.8461 105.614 80.8164 107.176 79.4861C109.018 77.9165 111.898 78.1764 114.147 78.1764" stroke="#E86229" stroke-width="2.18931" stroke-linecap="round"/>
<path d="M133.673 88.1775C131.976 88.1775 130.03 88.7268 128.355 88.3627C126.999 88.0678 125.393 86.4114 124.413 85.5317C123.611 84.8118 122.95 83.7108 122.601 82.7007C121.938 80.7874 123.322 78.7121 125.405 78.4145C127.287 78.1456 129.625 77.844 129.625 80.0814" stroke="#E86229" stroke-width="2.18931" stroke-linecap="round"/>
<path d="M136.314 87.3001C135.063 87.357 134.338 87.6246 134.443 88.9342C134.56 90.3997 136.807 91.5301 138.091 91.718C139.654 91.9468 139.664 90.2474 139.526 89.0482C139.401 87.9717 138.65 87.2761 137.606 87.034C136.394 86.7529 135.675 86.8939 134.851 87.7181C134.484 88.085 133.818 88.3723 133.777 88.9532C133.743 89.4533 133.958 90.2394 134.528 90.3594C135.384 90.5396 136.95 90.504 137.606 89.8653C138.153 89.3339 138.433 87.8398 138.024 87.1671C137.735 86.6897 136.79 86.6013 136.324 86.8345C135.448 87.2722 135.288 88.7647 135.288 89.6183C135.288 90.5093 136.535 90.226 137.169 90.2074C138.248 90.1756 138.461 87.8724 137.606 87.6801C136.88 87.5166 134.233 88.6459 134.443 89.5898C134.653 90.5358 134.775 87.6706 134.775 86.7015C134.775 85.7683 134.839 84.8088 134.747 83.8797C134.639 82.8048 134.044 81.88 133.853 80.8204C133.542 79.091 134.647 77.486 134.766 75.7659C134.816 75.0397 134.746 74.3077 134.775 73.5807C134.807 72.7934 140.79 74.467 141.331 74.6068C143.014 75.0419 144.691 75.5188 146.385 75.9084C147.719 76.2151 149.05 76.2221 150.385 76.45C150.899 76.5378 152.096 76.6816 152.219 77.3241C152.712 79.9155 150.158 82.0757 148.361 83.5947C146.721 84.9812 144.813 85.9935 143.06 87.2241C141.742 88.1497 140.48 89.3319 139.088 90.1313C138.597 90.4136 137.576 90.2438 137.027 90.2929C136.268 90.3606 135.445 90.2677 134.699 90.3974C133.519 90.6025 132.297 91.3448 131.336 92.0125C129.957 92.9696 128.548 93.9107 127.117 94.7868C126.254 95.3151 123.375 96.3846 123.26 97.5611C123.133 98.8659 126.677 100.958 127.687 101.475C128.486 101.884 129.31 102.008 130.196 102.008C130.623 102.008 130.794 102.244 131.184 102.331C131.909 102.492 132.663 102.335 133.407 102.521C134.069 102.686 134.814 103.178 135.497 103.205C136.161 103.23 136.316 102.403 136.523 101.894C137.193 100.247 137.492 98.6913 137.511 96.915C137.53 95.1268 137.34 93.3556 137.34 91.5755" stroke="#E86229" stroke-width="2.18931" stroke-linecap="round"/>
<path d="M103.037 152.193C100.68 151.737 98.7696 152.792 96.6518 153.815C88.8536 157.581 81.4645 161.292 73.0752 163.628C66.7787 165.381 59.1002 168.678 52.4294 168.678C50.1983 168.678 48.9306 166.628 47.7193 164.962C44.6519 160.745 40.8081 156.127 38.9795 151.251" stroke="black" stroke-width="2.18931" stroke-linecap="round"/>
<path d="M118.58 162.555C107.575 175.65 95.0105 186.124 80.245 194.688C78.2447 195.848 76.9736 198.014 78.8582 200.079C86.0925 208.002 89.8021 218.446 95.9715 227.083" stroke="black" stroke-width="2.18931" stroke-linecap="round"/>
<path d="M177.927 174.801C183.364 175.441 188.843 175.272 194.308 175.272C198.425 175.272 200.242 179.202 201.268 182.651C202.847 187.957 203.748 193.464 205.141 198.823C206.437 203.813 208.529 208.341 210.27 213.162C211.181 215.685 211.84 218.724 211.84 221.431" stroke="black" stroke-width="2.18931" stroke-linecap="round"/>
<path d="M138.362 185.634C137.345 185.253 134.07 187.844 133.547 188.146C127.896 191.412 122.162 193.197 115.937 194.976C115.06 195.227 112.044 195.477 112.3 196.991C112.958 200.882 115.599 204.568 117.193 208.086C120.972 216.422 122.241 225.387 125.279 233.939C125.812 235.44 126.279 236.846 126.587 238.387" stroke="black" stroke-width="2.18931" stroke-linecap="round"/>
<path d="M158.615 184.221C163.15 184.221 167.488 183.282 171.961 182.651C173.544 182.428 177.001 181.559 177.953 183.462C179.582 186.72 179.725 191.011 180.073 194.531C180.831 202.212 181.008 209.97 182.166 217.611C183.147 224.086 186.681 228.412 189.231 234.148" stroke="black" stroke-width="2.18931" stroke-linecap="round"/>
<path d="M186.505 151.23C192.466 155.662 197.338 161.606 204.274 164.682C209.332 166.925 215.57 166.183 220.847 165.298C223.981 164.773 227.1 164.023 230.117 163.024C231.562 162.546 233.909 161.95 234.762 160.442C235.469 159.19 235.34 157.152 235.764 155.74" stroke="black" stroke-width="2.18931" stroke-linecap="round"/>
<path d="M35.3154 172.315C35.809 170.439 36.7631 168.7 37.7776 167.06C39.292 164.612 41.0727 162.277 43.2237 160.354C46.6369 157.302 51.5994 153.469 56.5145 154.997C58.0943 155.488 59.0768 156.748 59.6957 158.223C60.902 161.096 61.3791 164.475 61.7443 167.55C62.1852 171.26 62.2148 175.009 62.2279 178.741C62.2336 180.384 62.2619 182.018 62.1134 183.653" stroke="black" stroke-width="2.18931" stroke-linecap="round"/>
<path d="M16.0754 165.558C18.063 166.471 19.912 167.825 21.7315 169.019C24.7073 170.973 27.6532 172.884 30.8423 174.478C35.8204 176.967 40.4299 180.136 45.4374 182.596C50.8697 185.265 56.0977 188.052 62.0365 189.404C63.7521 189.795 65.4363 190.218 67.1264 190.702C67.7642 190.885 68.408 190.996 68.9842 191.325" stroke="black" stroke-width="2.18931" stroke-linecap="round"/>
<path d="M69.2132 192.585C67.6047 195.017 66.138 197.524 64.5688 199.978C63.1101 202.259 61.661 204.382 60.5796 206.875C59.7748 208.73 58.9686 210.587 58.1938 212.455C57.7161 213.606 57.3968 214.844 56.845 215.947" stroke="black" stroke-width="2.18931" stroke-linecap="round"/>
<path d="M14.7015 165.787C12.2677 169.345 10.0252 173.006 7.67754 176.616C6.07083 179.087 4.08999 181.276 2.48592 183.754C2.12625 184.31 1.78609 184.683 2.16781 185.294C2.64073 186.051 3.36488 186.61 4.07649 187.126C6.70716 189.034 9.47086 190.762 12.1884 192.541C17.853 196.248 23.6092 199.78 29.3157 203.42C33.77 206.261 38.0781 209.341 42.651 211.996C45.8706 213.866 49.4218 215.039 52.8179 216.539C53.9443 217.037 55.1505 217.854 56.3871 218.009" stroke="black" stroke-width="2.18931" stroke-linecap="round"/>
<path d="M26.5609 182.243C28.2745 182.26 29.5687 182.969 30.794 184.18C31.4403 184.82 31.689 185.572 31.9059 186.444C32.1349 187.365 32.3559 188.348 31.8423 189.216C30.8599 190.876 28.4056 191.462 26.6324 191.201C25.2776 191.002 24.7718 189.91 24.2021 188.819" stroke="black" stroke-width="2.18931" stroke-linecap="round"/>
<path d="M39.8556 188.747C39.5 188.61 39.2817 188.169 38.9502 187.969C38.1464 187.483 36.9553 187.377 36.0435 187.329C35.3429 187.293 34.636 187.317 33.9349 187.317C33.3063 187.317 32.6703 187.283 32.0645 187.48C31.1347 187.784 29.9326 188.596 29.5549 189.533C29.2224 190.359 29.4889 191.195 30.0155 191.86C31.1639 193.311 32.8224 194.39 34.5186 195.101C35.8817 195.672 37.2682 195.55 38.704 195.625C38.9536 195.638 39.3415 195.588 39.4982 195.823" stroke="black" stroke-width="2.18931" stroke-linecap="round"/>
<path d="M193.029 237.764C193.628 238.961 194.212 240.192 194.944 241.315C195.542 242.234 196.386 241.589 197.144 241.292C198.334 240.827 198.155 239.99 197.306 239.123C196.038 237.826 195.266 236.161 194.079 234.784C193.332 233.917 193.116 232.838 192.473 231.919C191.805 230.965 191.303 229.963 190.666 228.993C190.426 228.627 188.7 230.26 188.443 230.429C187.408 231.111 186.343 231.576 185.254 232.143C184.479 232.547 183.786 233.083 182.954 233.379C182.551 233.521 181.678 233.568 181.803 234.181C181.942 234.86 182.288 235.611 182.498 236.281C182.833 237.35 183.054 238.439 183.332 239.524C183.73 241.076 184.413 242.261 184.413 243.925C184.413 245.384 183.888 246.852 183.023 248.032C182.463 248.796 181.389 249.69 180.452 249.916C179.467 250.154 181.685 249.816 181.896 249.777C182.997 249.575 184.221 249.407 185.247 248.959C186.296 248.499 187.296 248.36 188.165 247.492C188.971 246.685 189.988 246.388 190.666 245.407C192.313 243.028 192.195 240.122 192.195 237.347" stroke="black" stroke-width="2.18931" stroke-linecap="round"/>
<path d="M128.111 242.33C128.657 243.004 129.037 243.765 129.538 244.468C129.772 244.795 130.121 245.045 130.164 245.452C130.184 245.641 130.239 245.823 130.261 246.015C130.292 246.3 131.931 246.038 132.114 246.015C132.5 245.965 134.182 245.742 133.786 245.093C133.436 244.521 132.949 244.032 132.637 243.433C132.072 242.348 131.852 241.017 131.386 239.874C131.025 238.985 130.265 238.367 129.908 237.502C129.59 236.732 129.308 235.947 128.987 235.177C128.626 234.311 128.336 233.437 128.032 232.55C127.75 231.728 123.665 233.312 122.954 233.471C122.098 233.663 121.242 233.705 120.39 233.943C119.74 234.125 119.112 234.445 118.445 234.551C117.385 234.721 118.456 238.03 118.547 238.725C118.682 239.747 118.593 240.823 118.593 241.852C118.593 242.781 118.836 243.844 118.621 244.752C118.215 246.469 116.89 248.043 115.397 248.88C115.025 249.089 114.625 249.21 114.249 249.403C113.123 249.982 114.734 249.904 115.141 249.904C118.186 249.904 122.26 250.516 124.347 247.709C124.669 247.276 124.821 246.714 125.109 246.253C125.48 245.659 126.01 245.048 126.144 244.343C126.273 243.665 126.583 243.275 126.985 242.739" stroke="black" stroke-width="2.18931" stroke-linecap="round"/>
<path d="M98.4296 230.355C98.8945 231.169 99.4175 231.938 99.8682 232.755C100.159 233.281 100.422 233.859 100.784 234.341C101.076 234.731 101.287 235.19 101.654 235.518C101.979 235.809 102.267 235.532 102.575 235.319C102.885 235.104 103.156 235.123 103.496 235.052C103.839 234.98 104.206 234.786 104.576 234.699C104.914 234.62 105.534 234.528 105.071 234.091C104.607 233.652 104.056 233.401 103.695 232.851C103.118 231.973 102.464 231.054 101.784 230.253C101.019 229.35 100.409 228.287 99.7033 227.33C98.9443 226.301 98.0393 225.533 97.3834 224.419C96.9051 223.607 96.3874 222.797 95.8709 222.008C95.6166 221.619 95.392 221.135 95.0293 220.837C94.8008 220.648 92.7096 221.963 92.3341 222.144C91.9355 222.337 91.4475 222.329 91.015 222.417C90.4909 222.525 89.9986 222.735 89.4797 222.861C88.7825 223.03 88.0863 223.284 87.3816 223.401C86.7602 223.505 87.7387 225.055 87.8308 225.221C88.4193 226.277 89.1425 227.431 89.5195 228.581C90.4027 231.275 91.2975 234.058 90.6454 236.911C90.4079 237.95 90.2507 239.113 89.6617 240.027C89.1684 240.793 88.4564 241.492 87.8421 242.165C87.7322 242.285 87.1469 242.709 87.228 242.717C88.5476 242.843 90.2236 242.197 91.4016 241.636C92.0141 241.345 92.5532 240.915 93.1302 240.562C93.5248 240.32 93.9887 240.118 94.3356 239.805C95.0648 239.149 95.676 238.159 96.2007 237.338C97.0901 235.946 98.3676 234.445 98.4296 232.709C98.4515 232.097 98.4296 231.48 98.4296 230.867" stroke="black" stroke-width="2.18931" stroke-linecap="round"/>
<path d="M215.518 225.238C215.779 226.33 216.014 227.45 216.348 228.524C216.61 229.37 217.104 230.104 217.303 230.969C217.492 231.79 217.665 232.612 217.923 233.414C218.078 233.896 218.38 233.796 218.838 233.733C219.661 233.619 220.341 233.412 221.124 233.198C221.604 233.067 221.022 232.458 220.897 232.243C220.48 231.526 220.339 230.721 220.078 229.946C219.588 228.489 218.74 227.189 218.179 225.772C217.903 225.077 217.539 224.447 217.468 223.691C217.381 222.765 217.175 221.99 216.848 221.121C216.393 219.911 216.092 218.676 215.563 217.482C215.493 217.324 215.252 216.595 215.04 216.566C214.871 216.544 214.549 216.793 214.437 216.856C213.577 217.345 212.694 217.762 211.765 218.107C210.377 218.622 208.92 218.967 207.483 219.313C206.01 219.667 204.572 220.16 203.099 220.507C202.828 220.57 202.111 220.494 202.28 220.91C202.629 221.766 203.263 222.505 203.702 223.316C204.303 224.427 204.964 225.502 205.283 226.733C205.582 227.889 205.95 229.022 206.261 230.173C206.542 231.219 206.837 232.381 206.636 233.465C206.425 234.602 205.51 235.533 204.896 236.473C204.818 236.593 203.869 237.986 204.094 237.986C204.562 237.986 205.117 237.741 205.555 237.622C206.432 237.384 207.315 237.178 208.194 236.951C209.837 236.527 211.655 235.059 212.72 233.778C213.71 232.588 214.168 230.883 214.517 229.411C214.755 228.405 215.21 227.296 215.21 226.261" stroke="black" stroke-width="2.18931" stroke-linecap="round"/>
<path d="M237.42 134.965C237.289 137.723 237.113 140.459 237.113 143.221C237.113 145.21 237.091 146.999 236.59 148.942C236.14 150.69 235.514 152.236 235.476 154.036C235.473 154.154 235.407 154.664 235.55 154.707C236.343 154.951 237.245 154.872 238.057 155.037C239.445 155.319 240.696 155.64 242.128 155.64" stroke="black" stroke-width="2.18931" stroke-linecap="round"/>
<path d="M237.83 134.249C240.226 134.403 242.607 134.658 245.011 134.658C245.803 134.658 246.585 134.647 247.371 134.76C248.303 134.896 248.39 135.509 248.451 136.404C248.598 138.549 248.474 140.74 248.474 142.892C248.474 145.074 247.936 147.168 247.576 149.317C247.38 150.487 246.939 151.582 246.939 152.78C246.939 153.263 247.195 154.617 246.774 154.94C246.126 155.439 245.63 155.722 244.744 155.742C243.783 155.764 243.344 155.326 242.538 154.923" stroke="black" stroke-width="2.18931" stroke-linecap="round"/>
<path d="M240.901 152.16C240.901 151.638 241.024 151.648 241.515 151.648" stroke="black" stroke-width="2.18931" stroke-linecap="round"/>
<path d="M234.964 156.049C235.515 158.613 236.596 160.983 238.41 162.918C239.753 164.351 241.129 165.746 242.458 167.194C244.342 169.246 246.254 170.907 248.588 172.425C250.319 173.551 251.985 174.357 254.001 174.819C255.771 175.225 258.063 175.51 259.801 174.813C262.553 173.71 263.252 170.344 263.207 167.751C263.16 165.074 262.429 162.593 261.717 160.029C261.313 158.574 260.905 157.077 260.193 155.737C259.008 153.504 257.435 151.412 256.025 149.317C254.477 147.016 252.873 144.788 251.226 142.562C250.595 141.709 250.009 140.832 249.361 139.992C248.967 139.481 248.549 139.004 248.269 138.445" stroke="black" stroke-width="2.18931" stroke-linecap="round"/>
<path d="M241.31 167.308C240.435 167.24 240.708 165.795 241.366 165.534C242.129 165.231 242.999 165.827 242.879 166.682C242.685 168.068 239.945 169.044 240.297 167.069C240.385 166.58 240.869 165.889 241.435 166.148C241.843 166.335 242.031 166.835 242.231 167.205" stroke="black" stroke-width="2.18931" stroke-linecap="round"/>
<path d="M249.702 172.425C248.137 174.93 252.022 174.938 252.022 173.46C252.022 172.139 249.61 171.781 249.191 173.039" stroke="black" stroke-width="2.18931" stroke-linecap="round"/>
<path d="M260.756 172.22C260.803 172.193 262.246 173.503 262.53 173.653C263.278 174.05 264.081 174.165 264.589 173.398C265.609 171.854 264.041 171.831 262.991 171.441C261.856 171.02 261.255 170.896 260.142 171.402" stroke="black" stroke-width="2.18931" stroke-linecap="round"/>
<path d="M257.481 153.593C256.783 152.196 260.039 151.021 260.142 153.183C260.182 154.014 259.16 154.328 258.516 154.468C257.963 154.589 257.665 154.493 257.277 154.105" stroke="black" stroke-width="2.18931" stroke-linecap="round"/>
<path d="M263.213 161.781C262.256 161.824 260.606 161.783 260.392 162.941C260.234 163.796 260.951 164.157 261.695 164.323C262.155 164.425 263.281 164.731 263.474 164.124C263.602 163.724 263.832 162.708 263.52 162.395" stroke="black" stroke-width="2.18931" stroke-linecap="round"/>
<path d="M231.654 138.998C229.995 140.72 227.495 145.151 231.197 146.076" stroke="black" stroke-width="2.18931" stroke-linecap="round"/>
<path d="M250.833 131.463C252.158 132.945 254.076 134.674 254.677 136.677C254.938 137.548 254.429 137.843 253.802 138.313" stroke="black" stroke-width="2.18931" stroke-linecap="round"/>
<path d="M89.7073 141.98C91.766 144.038 93.5255 147.035 95.0622 149.502C96.3032 151.494 97.7747 153.17 99.2555 154.985C100.736 156.798 102.405 158.873 104.242 160.311C106.11 161.773 108.125 163.012 110.107 164.306C113.03 166.215 115.811 168.934 119.23 169.916C123.757 171.216 128.828 172.386 133.539 172.551C141.277 172.823 149.267 172.909 156.97 172.155C162.857 171.578 168.561 170.042 174.253 168.5C178.394 167.378 182.141 166.161 185.516 163.4C189.587 160.069 192.261 153.375 193.392 148.326C193.809 146.468 194.373 144.556 195.007 142.759C195.511 141.332 195.52 139.929 196.353 138.608C197.461 136.852 197.678 134.264 198.337 132.29" stroke="#E86229" stroke-width="2.18931" stroke-linecap="round"/>
<path d="M110.226 165.769C110.377 164.187 112.756 163.583 114.072 163.718C115.552 163.869 115.319 166.323 114.311 166.918C112.953 167.721 110.358 168.589 110.253 166.273C110.194 164.987 111.521 165.251 112.295 165.734C112.522 165.875 113.347 166.718 112.905 167.086C112.71 167.249 112.504 166.683 112.498 166.6C112.439 165.616 113.394 165.1 114.205 164.885C114.39 164.836 115.66 164.447 115.797 164.832C116.178 165.907 114.245 166.866 113.568 167.131C113.105 167.313 111.703 167.875 111.172 167.546C110.901 167.378 111.022 166.676 111.022 166.406" stroke="#E86229" stroke-width="2.18931" stroke-linecap="round"/>
<path d="M134.418 168.316C134.049 169.338 133.144 171.187 133.887 172.277C134.45 173.101 136.128 173.177 136.911 172.772C140.438 170.947 136.211 167.842 134.347 169.872C134.043 170.203 132.968 171.599 133.684 172.047C134.252 172.402 136.107 172.792 136.54 172.065C136.654 171.873 136.665 170.575 136.39 171.278C136.18 171.813 136.01 172.188 136.01 172.772" stroke="#E86229" stroke-width="2.18931" stroke-linecap="round"/>
<path d="M162.748 170.703C162.22 171.614 161.577 172.662 162.5 173.541C162.775 173.803 163.202 174.085 163.544 173.709C164.279 172.902 164.676 170.302 163.438 169.783C162.368 169.336 161.417 170.128 161.103 171.145C160.48 173.164 164.904 173.34 164.976 171.976C165.002 171.477 164.567 171.039 164.083 171.039C163.315 171.039 163.067 171.655 162.907 172.294" stroke="#E86229" stroke-width="2.18931" stroke-linecap="round"/>
<path d="M174.048 166.883C174.175 167.757 173.641 169.415 174.693 169.81C176.162 170.361 179.172 167.807 178.469 166.361C177.514 164.398 174.366 166.073 174.366 167.838" stroke="#E86229" stroke-width="2.18931" stroke-linecap="round"/>
<path d="M190.122 159.084C187.268 158.876 188.183 156.27 190.193 155.389C190.991 155.038 191.933 155.001 192.739 155.353C193.219 155.563 194.851 156.485 194.278 157.263C193.492 158.331 190.611 157.947 189.813 157.015C189.419 156.556 189.853 156.305 190.281 156.22" stroke="#E86229" stroke-width="2.18931" stroke-linecap="round"/>
<path d="M197.125 142.214C196.198 141.905 195.317 141.569 194.481 141.047C193.632 140.516 195.731 140.823 196.002 140.932C196.851 141.271 196.353 140.924 196.577 140.463C197.135 139.312 198.009 141.133 198.045 141.701C198.142 143.23 195.09 142.997 194.393 142.205C193.865 141.606 193.677 140.909 194.535 140.631C195.228 140.406 196.236 140.331 196.931 140.622C197.754 140.967 196.961 141.956 196.648 142.373" stroke="#E86229" stroke-width="2.18931" stroke-linecap="round"/>
<path d="M97.3569 154.73C95.6207 153.427 98.181 150.138 99.9778 152.902C101.029 154.519 98.3446 154.259 97.6119 153.71" stroke="#E86229" stroke-width="2.18931" stroke-linecap="round"/>
</svg>
