<svg width="244" height="237" viewBox="0 0 244 237" fill="none" xmlns="http://www.w3.org/2000/svg">
<circle cx="104.054" cy="138.598" r="56.0168" fill="black"/>
<path d="M111.264 117.431C108.812 102.536 113.383 89.0308 118.727 75.2321C124.698 59.8141 130.192 43.554 140.234 30.2116C146.986 21.2413 155.332 10.4736 166.458 6.79415C176.957 3.32253 186.903 7.10237 195.003 13.8828C201.666 19.461 207.981 29.1093 206.599 38.3204C205.483 45.7687 199.916 52.4893 195 57.7901C183.86 69.802 171.2 80.5344 159.274 91.7484C143.885 106.22 127.118 119.698 112.744 135.194C108.642 139.617 106.365 144.505 103.07 149.396" stroke="black" stroke-width="3.2951" stroke-linecap="round"/>
<path d="M108.129 127.603C108.275 117.388 111.794 109.244 119.596 102.308C126.324 96.3284 134.351 91.7722 141.91 86.9496C148.656 82.6454 155.397 78.1999 162.65 74.7785C176.217 68.3793 193.234 64.9425 208.23 65.0086C218.607 65.0543 235.852 67.6988 240.603 78.8356C244.258 87.4006 240.218 94.3448 234.518 100.859C226.251 110.307 215.501 116.641 204.752 122.883C191.246 130.728 177.486 137.396 162.982 143.168C153.553 146.921 144.165 150.011 134.376 152.649C124.389 155.34 115.222 159.183 105.562 162.708C98.3296 165.348 91.3277 167.692 84.2837 170.822" stroke="black" stroke-width="3.2951" stroke-linecap="round"/>
<path d="M94.1691 116.427C94.1691 122.261 88.0378 127.411 79.8903 127.411C71.7429 127.411 65.6116 122.261 65.6116 116.427C65.6116 110.593 71.7429 105.443 79.8903 105.443C88.0378 105.443 94.1691 110.593 94.1691 116.427Z" fill="white" stroke="black" stroke-width="2.19674"/>
<path d="M102.956 137.845C102.956 140.224 102.274 142.33 101.227 143.813C100.178 145.299 98.8314 146.083 97.4642 146.083C96.097 146.083 94.7506 145.299 93.7016 143.813C92.6546 142.33 91.9724 140.224 91.9724 137.845C91.9724 135.467 92.6546 133.36 93.7016 131.877C94.7506 130.391 96.097 129.607 97.4642 129.607C98.8314 129.607 100.178 130.391 101.227 131.877C102.274 133.36 102.956 135.467 102.956 137.845Z" fill="white" stroke="black" stroke-width="2.19674"/>
<path d="M127.12 115.329C127.12 117.191 125.789 119.091 123.17 120.588C120.581 122.067 116.932 123.017 112.841 123.017C108.751 123.017 105.101 122.067 102.513 120.588C99.8933 119.091 98.5625 117.191 98.5625 115.329C98.5625 113.466 99.8933 111.566 102.513 110.069C105.101 108.59 108.751 107.64 112.841 107.64C116.932 107.64 120.581 108.59 123.17 110.069C125.789 111.566 127.12 113.466 127.12 115.329Z" fill="white" stroke="black" stroke-width="2.19674"/>
<ellipse cx="76.5951" cy="116.427" rx="7.68858" ry="5.49184" fill="black"/>
<ellipse cx="109.546" cy="115.329" rx="7.68858" ry="4.39347" fill="black"/>
<path d="M56.7572 153.06C53.7776 151.53 50.9058 150.039 47.7102 148.947C39.3567 146.093 30.8192 143.976 22.3289 141.608C20.0566 140.975 17.8586 139.938 15.5693 139.416C15.2813 139.351 14.6448 139.35 14.9388 138.925C15.5594 138.029 16.39 137.261 17.1236 136.462C19.0443 134.368 20.7571 132.052 22.3289 129.687C22.8515 128.901 23.2872 128.071 23.9125 127.356C24.7604 126.386 25.6833 125.568 26.3978 124.482C26.9066 123.709 27.3169 122.877 27.8275 122.107C28.4973 121.096 29.3953 120.282 30.1442 119.335C30.746 118.575 31.3709 117.802 32.2116 117.297" stroke="black" stroke-width="3.2951" stroke-linecap="round"/>
<path d="M34.4551 106.344C34.215 108.409 33.2788 110.37 32.7835 112.385C32.1732 114.869 31.9478 117.136 31.9478 119.673C31.9478 121.59 31.6838 123.44 31.6838 125.347" stroke="black" stroke-width="3.2951" stroke-linecap="round"/>
<path d="M34.4551 105.025C36.765 105.025 39.058 104.784 41.3613 104.761C41.8744 104.756 42.3878 104.761 42.9009 104.761C43.5626 104.761 44.5911 104.553 45.2176 104.79C45.6239 104.943 45.4016 106.589 45.3863 106.857C45.3056 108.269 44.9953 109.634 44.6165 110.992C43.9759 113.289 43.3013 115.574 42.7103 117.884C42.238 119.729 41.3961 121.656 41.3173 123.573C41.2976 124.053 40.9722 124.783 40.5695 125.083C39.7163 125.719 38.2598 125.599 37.2557 125.611C36.0572 125.625 34.8648 125.743 33.6633 125.743" stroke="black" stroke-width="3.2951" stroke-linecap="round"/>
<path d="M46.396 99.6737C47.3789 100.584 48.5581 101.41 49.1415 102.66C49.6754 103.804 49.5814 105.088 49.4673 106.305" stroke="black" stroke-width="3.2951" stroke-linecap="round"/>
<path d="M51.0029 97.9286C52.0231 99.3507 53.0892 100.932 53.0892 102.733C53.0892 103.518 52.8178 104.267 52.8178 105.048" stroke="black" stroke-width="3.2951" stroke-linecap="round"/>
<path d="M37.106 121.919C37.106 121.768 37.1386 121.656 37.2563 121.568" stroke="black" stroke-width="3.2951" stroke-linecap="round"/>
<path d="M68.6049 173.481C64.1644 178.687 57.5557 182.935 51.321 185.679C46.7125 187.706 41.5934 188.574 36.7269 189.78C33.9805 190.46 31.1436 190.935 28.4578 191.83C27.0972 192.284 25.6773 192.836 24.2633 193.082C22.9947 193.303 20.5265 188.892 20.0022 187.862C19.3948 186.67 19.0656 186.241 18.0315 185.466" stroke="black" stroke-width="3.2951" stroke-linecap="round"/>
<path d="M95.2095 183.788C94.5994 186.96 94.2359 190.422 92.9857 193.428C91.9707 195.869 90.1131 198.062 88.6847 200.273C86.2306 204.071 83.5937 207.74 81.1746 211.564C79.5809 214.084 77.821 216.512 76.8736 219.354C75.8887 222.309 72.4491 222.821 69.7364 223.336C66.6712 223.917 63.3576 225.013 60.2156 225.013" stroke="black" stroke-width="3.2951" stroke-linecap="round"/>
<path d="M46.2838 218.214C45.7489 223.444 45.5708 229.045 46.4334 234.221" stroke="black" stroke-width="3.2951" stroke-linecap="round"/>
<path d="M46.2836 216.718C47.947 216.586 49.5948 216.17 51.2536 215.97C53.288 215.724 55.2928 215.689 57.3372 215.671C60.2315 215.644 63.1194 215.4 66.0139 215.371C67.4284 215.357 68.8042 215.358 70.2027 215.105C70.7909 214.999 72.4266 214.528 72.7624 215.305C73.2371 216.404 73.2749 217.835 73.3276 219.012C73.4216 221.112 73.3608 223.226 73.3608 225.328C73.3608 227.087 73.1902 228.948 73.4273 230.697C73.5055 231.274 73.66 231.77 73.66 232.359C73.66 234.034 68.3568 234.207 67.2772 234.221C60.0393 234.316 52.7699 234.37 45.5356 234.37" stroke="black" stroke-width="3.2951" stroke-linecap="round"/>
<path d="M57.4933 221.045C56.1093 220.877 54.7715 221.148 53.4472 221.564C52.8834 221.741 52.7382 221.941 52.5965 222.518C52.4057 223.296 52.2143 224.192 52.306 224.998C52.5028 226.727 54.5186 228.145 56.0097 228.618C58.0069 229.253 60.8342 228.897 62.6287 227.799C63.7459 227.116 64.3205 225.925 64.0448 224.619C63.7721 223.327 62.4949 222.44 61.3526 221.958C60.6105 221.645 59.6691 221.17 58.8627 221.066C58.4502 221.012 58.0245 221.057 57.6178 221.128C56.7691 221.276 55.8877 221.373 55.0501 221.569C53.3939 221.957 52.3168 223.149 51.9896 224.785C51.407 227.698 54.787 228.121 56.9019 227.892C58.1588 227.756 61.9751 226.383 60.8339 224.412C60.1787 223.28 58.4124 222.819 57.2132 222.819" stroke="black" stroke-width="3.2951" stroke-linecap="round"/>
<path d="M54.9722 225.714C52.8236 224.801 55.3103 222.049 56.8707 223.628C57.4066 224.171 59.4173 226.422 57.8044 226.844C57.0408 227.044 55.8993 226.945 55.3145 226.367C53.722 224.793 57.096 223.293 58.4062 224.085C58.9215 224.396 59.8557 226.525 58.707 225.807" stroke="black" stroke-width="3.2951" stroke-linecap="round"/>
<path d="M45.5415 216.843C45.1714 215.941 45.3223 214.738 45.4015 213.788C45.4483 213.226 45.4747 212.682 45.7282 212.175" stroke="black" stroke-width="3.2951" stroke-linecap="round"/>
<path d="M72.2455 215.443C72.1614 214.328 72.135 213.249 71.9135 212.154C71.8411 211.796 71.872 211.418 71.872 211.054" stroke="black" stroke-width="3.2951" stroke-linecap="round"/>
<path d="M44.9375 211.931C42.1175 211.931 39.3261 212.724 36.56 213.161C32.8095 213.752 28.9929 213.726 25.2072 213.726C23.0504 213.726 20.4977 214.079 18.4005 213.468C16.6698 212.964 13.8921 211.394 14.6689 209.122C15.1344 207.759 17.0183 206.531 18.4254 207.235C19.0483 207.546 19.1999 208.478 19.2066 209.088C19.2227 210.531 18.6915 211.35 17.5278 212.197C15.6025 213.597 12.6019 214.561 10.3887 213.194C7.99271 211.714 6.90625 207.353 7.77073 204.841C8.21076 203.563 8.42482 202.093 9.20022 200.985C9.75685 200.19 10.1195 199.218 11.2447 199.581C11.9054 199.793 12.829 201.42 12.7656 202.149C12.6203 203.82 8.65382 204.37 7.35518 204.085C6.05004 203.799 4.31464 202.74 3.57368 201.6C3.24516 201.095 3.24986 200.72 3.16645 200.146C3.01033 199.07 2.47689 198.196 2.4517 197.071C2.42521 195.888 2.40781 194.639 2.85894 193.522C3.35379 192.297 4.67865 191.387 5.75116 190.688C7.63883 189.457 9.69161 188.235 11.278 186.649" stroke="black" stroke-width="3.2951" stroke-linecap="round"/>
<path d="M5.89234 182.46C5.69047 181.922 4.69556 182.354 4.69556 181.413C4.69556 180.938 4.82871 180.964 5.29395 180.964C5.95368 180.964 6.23754 181.341 6.42424 181.978C6.75465 183.105 5.35308 183.011 4.58752 182.975C3.50651 182.925 3.44141 182.694 3.35749 181.645C3.26614 180.504 4.58104 178.897 5.82585 179.385C6.46679 179.636 6.54062 180.523 6.48242 181.105C6.37155 182.214 4.45398 182.77 3.56526 182.9C3.02485 182.98 2.02051 183.373 2.0028 182.576C1.98006 181.553 2.07668 180.676 3.01674 180.1C4.50768 179.185 5.72087 181.146 6.42424 182.177C7.23857 183.372 7.8646 184.588 9.18349 185.302C10.9195 186.243 12.4436 186.798 14.4527 186.798C16.0696 186.798 16.8932 186.629 18.2508 185.66C19.5563 184.727 20.7915 183.988 21.6001 182.576C22.2568 181.43 23.1508 180.33 23.4784 179.019C23.5853 178.592 23.2987 175.49 23.7194 175.437C24.5919 175.328 24.7716 175.958 23.9604 176.36C23.3262 176.674 21.8046 177.28 21.035 176.825C20.5202 176.521 20.2537 175.755 20.2537 175.204C20.2537 174.185 21.1 173.798 22.0406 173.576C22.9455 173.361 23.6482 173.565 24.376 174.116C24.6402 174.316 25.2269 174.697 25.3068 175.047C25.7078 176.801 21.8909 176.68 21.0017 176.235C20.4278 175.948 18.7503 174.832 20.2537 174.531" stroke="black" stroke-width="3.2951" stroke-linecap="round"/>
<path d="M3.37988 183.06C3.74278 183.347 3.89462 183.841 4.17961 184.201C4.36451 184.435 4.61912 184.564 4.80293 184.801C5.34087 185.492 6.46999 186.364 7.34324 186.641C9.52514 187.336 11.8203 187.823 14.1115 187.823C15.6109 187.823 17.0658 187.864 18.4571 187.176C19.3229 186.749 20.1103 186.142 20.8798 185.565C21.2485 185.289 21.6783 185.108 22.0324 184.813C22.9641 184.036 23.5648 183.233 23.9729 182.09C24.3191 181.121 24.8549 180.518 24.8549 179.456C24.8549 178.619 24.3375 177.964 24.3375 177.133" stroke="black" stroke-width="3.2951" stroke-linecap="round"/>
<path d="M19.4436 163.335C21.0927 162.296 22.9189 161.34 24.9271 161.787C28.4382 162.567 30.4578 166.479 32.1946 169.238" stroke="black" stroke-width="3.2951" stroke-linecap="round"/>
<path d="M34.5557 163.098C36.2592 164.598 36.6808 165.668 36.6808 167.847C36.6808 169.402 35.9724 170.829 35.9724 172.308" stroke="black" stroke-width="3.2951" stroke-linecap="round"/>
<path d="M125.833 176.912C128.417 181.625 131.84 185.968 134.993 190.287C139.264 196.137 143.41 202.712 148.631 207.817C150.425 209.571 152.367 211.872 155.098 211.563C164.02 210.553 173.038 205.156 180.266 200.178C183.366 198.044 187.584 195.318 189.046 191.662" stroke="black" stroke-width="3.2951" stroke-linecap="round"/>
<path d="M147.958 153.734C152.588 158.552 156.427 165.373 162.035 169.069C162.898 169.639 164.566 170.393 165.664 170.562C170.315 171.278 175.615 168.246 179.506 166.26C187.585 162.136 194.995 156.803 202.743 152.154" stroke="black" stroke-width="3.2951" stroke-linecap="round"/>
<path d="M203.238 134.438C203.238 141.026 203.312 147.612 203.469 154.198C203.575 158.66 203.844 163.105 204.059 167.561C204.15 169.465 203.908 171.587 204.374 173.453" stroke="black" stroke-width="3.2951" stroke-linecap="round"/>
<path d="M202.859 132.923C207.141 132.088 211.571 132.927 215.864 131.797C218.161 131.193 220.433 131.055 222.808 130.924C224.429 130.835 226.42 131.087 227.943 130.377C229.612 129.598 229.901 142.333 229.984 143.34C230.513 149.727 231.242 156.008 231.268 162.426C231.279 165.123 231.457 167.809 231.457 170.507C231.457 170.861 231.559 171.414 231.415 171.749C230.972 172.783 227.883 172.929 226.964 173.159C223.289 174.078 219.317 174.023 215.548 174.169C212.207 174.298 208.854 174.211 205.51 174.211" stroke="black" stroke-width="3.2951" stroke-linecap="round"/>
<path d="M206.602 140.519H219.959" stroke="black" stroke-width="3.2951" stroke-linecap="round"/>
<path d="M207.548 146.666H216.768" stroke="black" stroke-width="3.2951" stroke-linecap="round"/>
<path d="M209.202 152.104C212.645 152.69 216.124 152.576 219.605 152.576C220.039 152.576 220.517 152.5 220.905 152.695" stroke="black" stroke-width="3.2951" stroke-linecap="round"/>
<path d="M208.375 159.196C208.522 159.638 210.212 159.432 210.489 159.433C212.403 159.439 214.262 159.364 216.163 159.157C217.081 159.057 218.108 158.97 219.014 159.196" stroke="black" stroke-width="3.2951" stroke-linecap="round"/>
<path d="M189.472 202.391C188.87 201.296 188.026 200.44 187.57 199.248C186.936 197.591 186.625 195.875 186.402 194.119C186.222 192.701 186.051 190.699 186.77 189.405C187.667 187.789 189.54 186.246 191.329 185.774C196.207 184.487 201.322 184.457 206.347 184.524C210.531 184.58 212.237 189.202 213.626 192.493C214.514 194.597 215.65 197.805 214.095 199.864C213.097 201.184 212.148 202.21 210.74 203.09C210.077 203.504 209.267 203.793 208.7 204.34C207.52 205.477 207.399 207.997 208.663 209.147C209.839 210.216 211.517 210.871 212.633 211.987" stroke="black" stroke-width="3.2951" stroke-linecap="round"/>
<path d="M189.969 203.218C191.895 203.218 193.671 203.807 195.584 203.871C197.526 203.936 199.478 203.88 201.42 203.88C203.615 203.88 205.099 205.145 206.595 206.674C207.457 207.556 208.572 208.133 209.573 208.843C210.456 209.47 211.272 210.18 212.137 210.829" stroke="black" stroke-width="3.2951" stroke-linecap="round"/>
<path d="M193.507 194.856V195.269" stroke="black" stroke-width="3.2951" stroke-linecap="round"/>
<path d="M198.979 194.959C199.021 195.132 199.054 195.301 199.083 195.475" stroke="black" stroke-width="3.2951" stroke-linecap="round"/>
<path d="M203.936 194.03C204.063 194.308 204.143 194.55 204.143 194.856" stroke="black" stroke-width="3.2951" stroke-linecap="round"/>
<path d="M174.888 225.462C173.728 225.188 172.686 224.287 171.747 223.567C170.829 222.864 169.981 222.065 169.378 221.076C168.583 219.775 168.327 218.507 168.457 216.988C168.558 215.815 169.299 214.845 170.034 213.948C170.798 213.017 172.163 212.07 173.25 211.539C173.805 211.267 174.495 211.238 175.091 211.085C176.384 210.753 177.685 210.304 179.017 210.165C181.499 209.904 184.026 209.989 186.517 209.989C188.434 209.989 190.067 210.257 191.919 210.733C194.377 211.365 197.152 212.507 197.3 215.458C197.405 217.562 195.646 219.176 194.477 220.792C193.841 221.672 192.127 223.973 192.88 225.205C193.1 225.565 193.888 225.939 194.261 226.126C194.811 226.401 195.307 226.778 195.845 227.046" stroke="black" stroke-width="3.2951" stroke-linecap="round"/>
<path d="M175.254 225.706C176.361 226.198 177.854 225.95 179.031 225.95C180.273 225.95 181.449 225.966 182.659 225.652C183.828 225.349 184.963 224.893 186.186 224.989C187.455 225.088 188.629 225.782 189.854 226.092C190.638 226.29 191.442 226.429 192.23 226.613C193.19 226.838 194.145 227.007 195.114 227.168" stroke="black" stroke-width="3.2951" stroke-linecap="round"/>
<path d="M177.325 217.055V218.274" stroke="black" stroke-width="3.2951" stroke-linecap="round"/>
<path d="M184.635 216.568V217.177" stroke="black" stroke-width="3.2951" stroke-linecap="round"/>
<path d="M189.144 215.471C189.202 215.718 189.234 215.953 189.265 216.202" stroke="black" stroke-width="3.2951" stroke-linecap="round"/>
<path d="M161.241 221.807C161.746 223.256 162.413 224.384 163.658 225.307C164.242 225.74 164.959 225.926 165.628 226.194" stroke="black" stroke-width="3.2951" stroke-linecap="round"/>
<path d="M222.132 189.786C222.922 191.534 223.381 193.433 223.574 195.339C223.844 198.013 223.006 199.347 221.546 201.499" stroke="black" stroke-width="3.2951" stroke-linecap="round"/>
<path d="M107.034 96.181C109.011 99.8387 113.174 102.253 117.112 103.204C119.144 103.694 121.262 103.77 123.346 103.691C124.213 103.659 125.244 103.486 125.968 103.003" stroke="white" stroke-width="2.19674" stroke-linecap="round"/>
<path d="M62.809 96.3178C62.745 96.6648 61.5013 100.683 61.7283 100.747C62.0418 100.835 62.3807 100.724 62.7027 100.676C64.585 100.394 66.4142 99.9071 68.2036 99.2586C69.3143 98.8561 69.9999 98.5543 70.985 98.0274C71.01 98.014 71.5637 97.6016 71.738 97.5933C72.0491 97.5785 72.1518 98.7336 72.3757 98.9575C73.0269 99.6086 74.546 97.5318 74.7851 97.2213C75.1727 96.7179 75.3967 95.8908 75.8835 95.4851C76.3468 95.0991 77.2117 96.116 77.478 96.3532C78.3071 97.0917 79.4698 98.3985 80.7023 98.1957C82.9824 97.8205 84.2679 94.6242 85.592 93.0225C86.5182 91.9022 87.4841 93.562 88.2671 94.2981C89.0101 94.9965 89.1936 95.791 89.5073 94.5993C90.0445 92.5577 91.9449 92.9694 93.6528 92.9694C96.9451 92.9694 100.247 93.0468 103.538 92.9694C104.648 92.9433 105.261 91.1572 106.249 90.684C108.618 89.5498 110.943 91.187 112.928 92.2253C113.63 92.5927 114.505 92.9746 115.302 93.0846C115.729 93.1435 116.407 92.2491 116.843 92.0836C119.648 91.0191 122.153 92.4574 124.621 93.6603C126.335 94.4961 128.196 94.6736 129.652 93.2174C130.361 92.5089 130.593 91.5813 131.734 92.1279C132.586 92.5361 133.389 93.0426 134.17 93.5717C134.471 93.776 135.113 94.3683 135.534 94.1741C136.607 93.6789 137.908 91.352 137.908 90.1791C137.908 89.9751 137.775 89.2844 138.12 89.2844C138.944 89.2844 139.782 89.8477 140.636 89.9134C141.111 89.9499 142.56 90.1968 142.975 89.8336C143.494 89.3787 142.813 88.4797 142.532 88.1683C141.256 86.7577 139.656 85.683 138.298 84.3593C137.915 83.9863 137.351 83.5059 137.119 83.0041C136.718 82.1348 134.778 81.1434 133.851 81.0198C132.86 80.8877 134.463 79.7964 134.754 79.5051C135.028 79.2313 134.205 79.0209 134.117 79.0091C130.907 78.5794 127.456 78.9571 124.231 78.9205C122.348 78.8991 120.584 78.8759 118.712 78.761C117.846 78.7078 116.346 79.0444 116.17 78.1941C116.032 77.5267 117.308 76.6954 117.72 76.4048C118.329 75.9751 119.396 75.2467 118.172 74.8015C116.669 74.2549 115.249 74.694 114.071 73.4285C113.738 73.0713 113.464 72.7019 113.229 72.2769C112.906 71.6903 111.485 72.327 111.121 72.4364C109.715 72.8594 107.044 74.3379 106.019 72.7996C105.317 71.7471 105.254 71.9709 104.114 72.4629C102.683 73.0808 101.823 71.6422 100.899 70.7179C100.012 69.8312 99.208 69.1722 98.4894 68.0605C98.0973 67.4541 97.5943 66.8685 97.3467 66.1826C97.2948 66.0389 96.9433 65.2408 97.0012 65.1019C97.2523 64.4992 98.9685 65.7039 98.4185 64.0743C98.0088 62.8604 96.9185 61.4455 96.08 60.478C95.904 60.2749 95.9737 59.9549 95.9737 59.7073C95.9737 58.6291 95.9802 57.5424 95.8142 56.4741C95.6812 55.6177 95.5926 54.6537 94.7867 54.1356C94.252 53.7919 93.5501 53.7184 92.9619 53.4978C92.4651 53.3115 92.0616 52.9635 91.5623 52.7892C91.0664 52.616 90.6574 52.4189 90.2513 52.0805C90.0533 51.9155 89.8446 51.5654 90.021 52.0805C90.4703 53.3924 91.2392 54.3187 91.9521 55.4643C92.5176 56.3731 91.4996 55.6019 91.1549 55.5352C90.648 55.4371 90.0719 56.6287 89.8882 56.9082C89.0707 58.1514 88.4536 59.3821 88.2317 60.8677C87.9556 62.7164 87.881 61.5333 87.2042 60.6374C87.1602 60.5792 86.6354 59.97 86.8941 60.3274C87.665 61.392 88.4174 62.469 89.2238 63.5074C90.2001 64.7646 87.3511 64.7208 86.5309 64.907C85.282 65.1906 83.9222 65.4279 82.7397 65.9434C81.9229 66.2994 83.1167 66.9654 83.4483 67.1747C84.3563 67.7477 85.3339 68.1191 86.3892 68.3085C87.0885 68.434 85.0308 68.2554 84.8745 68.2554C84.1947 68.2554 83.152 68.0588 82.4917 68.2908C82.0811 68.435 82.7231 69.4213 82.8194 69.5929C83.01 69.9327 84.1009 71.0705 83.4926 71.4354C82.847 71.8228 79.1877 71.5734 79.0459 72.0555C78.7299 73.1299 80.8385 74.491 80.9769 75.5987C81.1303 76.8253 78.0766 75.8183 77.5931 76.2631C76.55 77.2228 77.0229 79.5093 76.8314 80.7541C76.739 81.3546 73.4529 80.9962 73.0224 81.0287C71.5348 81.141 71.4438 84.1434 71.2685 85.254C71.1271 86.1492 70.4461 85.5037 69.7449 85.7501C69.0132 86.0071 68.5949 86.8184 68.3719 87.5128C68.2835 87.7882 68.3623 88.5651 68.1061 88.753C67.2449 89.3845 66.7051 89.4667 66.3965 90.5777C66.2281 91.184 66.0088 91.6404 65.7765 92.2342C65.3087 93.4297 64.9126 94.4606 63.4557 94.5727C62.3242 94.6597 62.6496 96.3349 62.6496 97.115" stroke="#E86229" stroke-width="2.19674" stroke-linecap="round"/>
<path d="M87.9786 162.183C87.1531 162.092 87.1 161.369 87.3817 160.738C87.8146 159.769 88.5117 159.254 89.5337 158.995C90.0753 158.858 90.8616 158.618 91.3166 159.073C92.8234 160.58 93.0479 163.611 92.4868 165.529C91.8431 167.73 89.9901 169.817 88.12 171.043C87.5672 171.405 86.2803 172.883 86.18 171.553C86.0725 170.129 88.8803 169.604 89.8007 170.375C91.1439 171.501 92.1341 173.154 93.5707 174.137C94.4076 174.71 95.2746 174.045 95.8955 173.493" stroke="#E86229" stroke-width="2.19674" stroke-linecap="round"/>
<path d="M99.4295 158.225C99.2903 160.057 98.7407 161.828 98.3299 163.613C98.2145 164.114 98.1182 164.767 97.733 165.152C97.5181 165.367 97.1934 165.338 97.6701 165.639C98.7665 166.333 100.093 166.425 101.354 166.425C101.879 166.425 102.034 166.368 102.335 165.922C102.43 165.782 103.02 164.801 102.862 165.506C102.483 167.191 101.55 168.916 101.55 170.666" stroke="#E86229" stroke-width="2.19674" stroke-linecap="round"/>
<path d="M111.446 154.267C109.98 159.843 108.434 165.347 106.483 170.776C105.478 173.571 104.407 176.337 103.592 179.195C103.127 180.83 102.527 182.453 102.116 184.096" stroke="#E86229" stroke-width="2.19674" stroke-linecap="round"/>
<path d="M115.829 162.042C117.513 162.028 119.298 161.749 120.974 161.909C121.961 162.003 121.576 163.768 121.437 164.32C120.654 167.424 118.344 169.967 117.086 172.881C116.61 173.981 116.129 175.127 116.395 176.321" stroke="#E86229" stroke-width="2.19674" stroke-linecap="round"/>
<path d="M113.284 170.807C117.538 169.822 121.846 169.121 126.149 168.404" stroke="#E86229" stroke-width="2.19674" stroke-linecap="round"/>
</svg>
